<?xml version="1.0" encoding="UTF-8"?>
<svg id="Layer_1" data-name="Layer 1" xmlns="http://www.w3.org/2000/svg" viewBox="0 0 159.84 159.88">
  <defs>
    <style>
      .cls-1 {
        fill: #d5d5d5;
        stroke-width: 0px;
      }
    </style>
  </defs>
  <path class="cls-1" d="m130.67,107.89l8.44,2.81c1.55-4.65-.96-9.68-5.61-11.24-2.4-.8-5.03-.54-7.22.71,0,0,4.4,7.72,4.4,7.72ZM53.28,26.95l7.51,4.74c2.62-4.15,1.39-9.63-2.76-12.25-2.19-1.39-4.88-1.75-7.36-.98l2.61,8.49Zm73,73.23c-7.36,4.19-15.68,6.39-24.15,6.38v17.76c11.55.02,22.91-2.98,32.95-8.7,0,0-8.79-15.43-8.79-15.43Zm-24.15,6.38c-26.97,0-48.84-21.86-48.85-48.83h0s-17.76,0-17.76,0c0,36.78,29.82,66.6,66.6,66.6v-17.76h0Zm-48.85-48.83c0-9.58,2.75-18.49,7.5-26.02l-15.03-9.5c-6.71,10.63-10.26,22.95-10.24,35.52h17.76Zm-35.52,29.91c0-24.68,16.12-45.45,38.11-52.2l-5.2-16.96C21.29,27.48,0,55.07,0,87.62h17.76Zm53.65,54.49c-29.52,0-53.65-24.3-53.65-54.5H0c0,39.78,31.86,72.25,71.41,72.25v-17.76h0Zm50.84-37.03c-7.19,21.61-27.3,37.03-50.84,37.03v17.76c31.54,0,58.19-20.66,67.68-49.17l-16.85-5.61h0Z"/>
  <path class="cls-1" d="m124.32,0c4.9,0,8.88,3.98,8.88,8.88,0,9.81,7.95,17.76,17.76,17.76,4.9,0,8.88,3.98,8.88,8.88s-3.98,8.88-8.88,8.88c-9.81,0-17.76,7.95-17.76,17.76,0,4.9-3.98,8.88-8.88,8.88s-8.88-3.98-8.88-8.88c0-9.81-7.95-17.76-17.76-17.76-4.9,0-8.88-3.98-8.88-8.88s3.98-8.88,8.88-8.88c9.81,0,17.76-7.95,17.76-17.76,0-4.9,3.98-8.88,8.88-8.88Z"/>
</svg>